HIERARCHY
ROOT Hips
{
	OFFSET	0.00	0.00	0.00
	CHANNELS 6 Xposition Yposition Zposition Zrotation Xrotation Yrotation
	JOINT LeftUpLeg
	{
		OFFSET	 0.126116	-0.065224	 0.014019
		CHANNELS 3 Zrotation Xrotation Yrotation
		JOINT LeftLeg
		{
			OFFSET	 0.000000	 0.569914	 0.000000
			CHANNELS 3 Zrotation Xrotation Yrotation
			JOINT LeftFoot
			{
				OFFSET	 0.000000	 0.544423	 0.000000
				CHANNELS 3 Zrotation Xrotation Yrotation
				JOINT LeftToeBase
				{
					OFFSET	 0.000000	 0.207117	 0.000000
					CHANNELS 3 Zrotation Xrotation Yrotation
					End Site
					{
						OFFSET	 0.000000	 0.207117	 0.000000
					}
				}
			}
		}
	}
	JOINT RightUpLeg
	{
		OFFSET	-0.124023	-0.065224	 0.008373
		CHANNELS 3 Zrotation Xrotation Yrotation
		JOINT RightLeg
		{
			OFFSET	 0.000000	 0.570047	 0.000000
			CHANNELS 3 Zrotation Xrotation Yrotation
			JOINT RightFoot
			{
				OFFSET	 0.000000	 0.544354	 0.000000
				CHANNELS 3 Zrotation Xrotation Yrotation
				JOINT RightToeBase
				{
					OFFSET	 0.000000	 0.207540	 0.000000
					CHANNELS 3 Zrotation Xrotation Yrotation
					End Site
					{
						OFFSET	 0.000000	 0.207540	 0.000000
					}
				}
			}
		}
	}
	JOINT Spine
	{
		OFFSET	 0.000184	 0.117403	 0.007763
		CHANNELS 3 Zrotation Xrotation Yrotation
		JOINT Spine1
		{
			OFFSET	 0.000000	 0.137269	 0.000000
			CHANNELS 3 Zrotation Xrotation Yrotation
			JOINT Spine2
			{
				OFFSET	 0.000000	 0.156879	 0.000000
				CHANNELS 3 Zrotation Xrotation Yrotation
				JOINT LeftShoulder
				{
					OFFSET	 0.080501	 0.160143	 0.002496
					CHANNELS 3 Zrotation Xrotation Yrotation
					JOINT LeftArm
					{
						OFFSET	 0.000000	 0.164363	 0.000000
						CHANNELS 3 Zrotation Xrotation Yrotation
						JOINT LeftForeArm
						{
							OFFSET	 0.000000	 0.364576	 0.000000
							CHANNELS 3 Zrotation Xrotation Yrotation
							JOINT LeftHand
							{
								OFFSET	 0.000000	 0.360812	 0.000000
								CHANNELS 3 Zrotation Xrotation Yrotation
								JOINT LeftHandIndex1
								{
									OFFSET	 0.000000	 0.086006	 0.000000
									CHANNELS 3 Zrotation Xrotation Yrotation
									JOINT LeftHandIndex2
									{
										OFFSET	 0.000000	 0.047237	 0.000000
										CHANNELS 3 Zrotation Xrotation Yrotation
										JOINT LeftHandIndex3
										{
											OFFSET	-0.004284	 0.038165	 0.000551
											CHANNELS 3 Zrotation Xrotation Yrotation
											End Site
											{
												OFFSET	-0.004284	 0.038165	 0.000551
											}
										}
									}
								}
							}
						}
					}
				}
				JOINT Neck
				{
					OFFSET	 0.000000	 0.176489	 0.000000
					CHANNELS 3 Zrotation Xrotation Yrotation
					JOINT Head
					{
						OFFSET	 0.000000	 0.077941	 0.001747
						CHANNELS 3 Zrotation Xrotation Yrotation
						End Site
						{
							OFFSET	 0.000000	 0.077941	 0.001747
						}
					}
				}
				JOINT RightShoulder
				{
					OFFSET	-0.080363	 0.159706	-0.000306
					CHANNELS 3 Zrotation Xrotation Yrotation
					JOINT RightArm
					{
						OFFSET	 0.000000	 0.164196	 0.000000
						CHANNELS 3 Zrotation Xrotation Yrotation
						JOINT RightForeArm
						{
							OFFSET	 0.000000	 0.365611	 0.000000
							CHANNELS 3 Zrotation Xrotation Yrotation
							JOINT RightHand
							{
								OFFSET	 0.000000	 0.360648	 0.000000
								CHANNELS 3 Zrotation Xrotation Yrotation
								JOINT RightHandIndex1
								{
									OFFSET	 0.000000	 0.069977	 0.000000
									CHANNELS 3 Zrotation Xrotation Yrotation
									JOINT RightHandIndex2
									{
										OFFSET	 0.000000	 0.052305	 0.000000
										CHANNELS 3 Zrotation Xrotation Yrotation
										JOINT RightHandIndex3
										{
											OFFSET	 0.009002	 0.042196	 0.000782
											CHANNELS 3 Zrotation Xrotation Yrotation
											End Site
											{
												OFFSET	 0.009002	 0.042196	 0.000782
											}
										}
									}
								}
							}
						}
					}
				}
			}
		}
	}
}
MOTION
Frames:    9
Frame Time: 0.03333334
 0.480138	 1.000591	 0.620463	-8.688017	-41.922160	-179.372400	 41.593910	 85.232390	 118.482800	 41.622860	-68.200910	 48.421410	 83.373990	 63.474940	-70.048490	 1.292262	 28.425850	-2.713146	 31.433490	 80.298260	 148.814900	-38.930000	-72.992090	-45.922910	-74.887070	 56.691330	 60.334110	-1.288183	 28.361890	 2.710176	-1.678915	 11.765770	 2.905498	-1.545982	 7.238807	-1.820281	-1.373439	 10.595650	-1.194869	-126.823100	 30.960620	 107.941100	 68.617550	-5.583730	 14.287790	 10.461770	-4.196678	-71.616280	 0.146189	-11.715180	 15.449170	-6.580301	 5.266122	 0.000000	 0.000000	 0.000000	 0.000000	 0.000000	 0.000000	 0.000000	 10.942160	 42.399350	-4.906720	-6.324649	-49.251780	-0.823312	 127.108000	 29.793830	-107.938700	-68.591750	 4.439399	 9.258833	-20.682760	 2.114050	 27.688060	-5.217650	-27.631100	-14.466810	 15.208500	 5.323790	 0.000000	 0.000000	 0.000000	 0.000000	 0.000000	 0.000000	 0.000000
 0.478586	 0.973422	 0.626514	-9.131367	-41.728160	 179.948000	 23.311620	 83.275470	 136.673200	 49.760120	-70.811170	 56.027810	 85.443520	 63.442250	-72.570690	 1.292262	 28.425850	-2.713146	 20.532720	 78.243030	 158.688100	-48.272010	-75.557790	-55.376110	-75.563520	 56.391960	 61.794990	-1.288183	 28.361890	 2.710176	-3.625294	 11.405180	 12.030460	-1.600714	 8.005337	-1.942776	-1.549221	 9.956824	-1.253065	-126.144100	 32.936390	 108.834800	 67.944990	-7.080003	 14.736020	 9.277143	-4.772185	-77.213590	 0.787539	-12.024480	 19.094150	-6.580301	 5.266122	 0.000000	 0.000000	 0.000000	 0.000000	 0.000000	 0.000000	 0.000000	 11.231920	 42.209550	-4.846300	-6.782094	-50.221170	-0.954797	 125.498800	 31.008680	-108.023900	-72.304500	 3.764626	 7.345332	-11.988290	 1.092234	 29.569490	-10.493600	-26.991440	-14.865160	 15.208500	 5.323790	 0.000000	 0.000000	 0.000000	 0.000000	 0.000000	 0.000000	 0.000000
 0.475022	 0.959284	 0.632655	-9.838909	-40.941000	 179.178800	 19.859290	 82.926790	 139.065400	 53.302770	-71.668660	 58.912060	 86.713920	 63.854340	-73.847590	 1.292262	 28.425850	-2.713146	 17.189000	 77.524670	 160.753500	-53.965230	-76.629760	-60.961200	-74.826160	 56.272930	 61.608950	-1.288183	 28.361890	 2.710176	-5.859080	 10.280860	 24.030890	-1.632414	 9.367806	-1.996745	-1.842390	 8.317546	-1.315399	-124.667300	 34.156550	 108.959500	 67.956210	-6.545744	 16.402330	 8.055377	-4.208250	-73.841040	 4.584820	-13.755810	 20.074140	-6.580301	 5.266122	 0.000000	 0.000000	 0.000000	 0.000000	 0.000000	 0.000000	 0.000000	 11.787690	 41.225500	-4.983962	-7.813974	-51.243430	-1.334400	 124.265300	 32.028290	-108.115700	-73.559620	 4.952045	 5.891673	-10.645600	 0.678334	 24.932460	-11.928930	-30.252880	-17.774290	 15.208500	 5.323790	 0.000000	 0.000000	 0.000000	 0.000000	 0.000000	 0.000000	 0.000000
 0.471726	 0.968047	 0.634666	-10.241340	-40.112670	 178.896600	 25.457450	 84.341020	 132.606900	 49.784890	-70.817670	 54.922120	 86.327360	 64.503810	-73.141780	 1.292262	 28.425850	-2.713146	 21.785970	 78.662730	 155.791800	-49.510360	-75.816660	-56.133610	-73.185640	 56.653170	 60.002570	-1.288183	 28.361890	 2.710176	-6.852869	 9.359306	 30.851640	-1.598183	 9.891870	-1.986666	-1.955971	 7.643668	-1.440574	-123.864000	 33.706360	 108.431300	 68.946620	-5.751183	 18.793230	 7.225320	-3.394390	-67.135830	 9.369729	-16.813370	 19.016100	-6.580301	 5.266122	 0.000000	 0.000000	 0.000000	 0.000000	 0.000000	 0.000000	 0.000000	 11.403560	 39.083880	-4.829882	-7.507263	-49.444660	-1.206124	 124.321400	 31.807380	-108.016200	-74.906160	 5.634453	 6.022494	-9.501598	 0.565092	 18.896720	-13.693300	-34.397930	-19.195080	 15.208500	 5.323790	 0.000000	 0.000000	 0.000000	 0.000000	 0.000000	 0.000000	 0.000000
 0.467307	 0.988295	 0.635480	-10.179190	-38.748630	 178.911300	 55.206260	 86.903450	 102.078400	 42.871270	-68.670780	 47.438220	 84.634100	 65.479340	-70.937480	 1.292262	 28.425850	-2.713146	 35.048240	 80.838240	 142.969800	-41.012250	-73.674720	-47.548940	-71.001460	 57.028170	 57.712960	-1.288183	 28.361890	 2.710176	-7.300285	 8.443815	 35.772960	-1.406653	 10.450510	-1.959083	-1.971248	 6.642516	-1.585311	-124.209500	 32.759560	 108.131900	 70.012700	-4.796434	 18.314240	 6.278052	-2.509785	-60.104020	 13.003310	-17.302500	 17.652890	-6.580301	 5.266122	 0.000000	 0.000000	 0.000000	 0.000000	 0.000000	 0.000000	 0.000000	 10.075100	 35.457680	-4.315553	-6.320327	-45.888660	-0.829965	 124.679200	 30.947420	-107.679300	-75.669930	 6.455018	 7.217894	-8.199314	 0.499647	 10.722050	-16.124490	-37.416270	-19.945720	 15.208500	 5.323790	 0.000000	 0.000000	 0.000000	 0.000000	 0.000000	 0.000000	 0.000000
 0.461218	 1.022871	 0.633637	-9.094537	-36.212840	 179.656800	 150.058800	 85.028070	 6.668473	 34.617830	-64.937970	 39.143350	 81.237300	 66.395210	-67.224950	 1.292262	 28.425850	-2.713146	 78.614140	 82.624940	 101.671000	-31.427840	-69.765160	-38.725150	-69.080290	 57.289860	 55.760620	-1.288183	 28.361890	 2.710176	-7.035360	 7.742012	 37.995100	-0.953144	 10.744120	-1.847900	-1.665042	 4.774855	-1.638385	-123.043000	 30.737730	 106.576100	 70.063000	-1.170792	 14.119260	 5.263404	-1.516953	-51.349860	 16.157710	-16.641310	 16.109040	-6.580301	 5.266122	 0.000000	 0.000000	 0.000000	 0.000000	 0.000000	 0.000000	 0.000000	 6.569544	 27.969930	-2.737167	-4.145552	-38.898950	-0.530060	 124.616900	 29.196110	-106.692300	-75.148170	 9.688014	 6.390264	-6.866703	 0.298208	 4.110792	-21.787490	-38.030530	-22.728940	 15.208500	 5.323790	 0.000000	 0.000000	 0.000000	 0.000000	 0.000000	 0.000000	 0.000000
 0.453526	 1.068546	 0.630142	-7.865840	-33.681180	-179.519100	 167.707300	 77.945050	-11.467560	 26.126290	-58.897920	 30.910900	 75.170160	 67.213860	-60.736770	 1.292262	 28.425850	-2.713146	 123.635400	 78.941890	 59.239390	-22.687390	-63.511610	-31.166150	-65.874020	 57.136660	 52.597890	-1.288183	 28.361890	 2.710176	-6.072437	 7.207119	 37.122540	-0.646591	 9.778588	-1.757651	-1.245189	 3.329768	-1.653103	-121.750600	 28.517520	 104.922600	 69.448810	 3.162551	 9.205925	 4.168954	-0.520428	-42.237820	 19.523010	-15.437710	 14.431110	-6.580301	 5.266122	 0.000000	 0.000000	 0.000000	 0.000000	 0.000000	 0.000000	 0.000000	 3.176203	 19.786620	-1.623133	-2.001293	-31.353470	-0.514476	 124.532700	 27.305030	-105.628400	-66.162130	 13.930830	 3.239295	-20.875920	 0.502778	-2.511057	-19.750540	-37.612030	-24.756550	 15.208500	 5.323790	 0.000000	 0.000000	 0.000000	 0.000000	 0.000000	 0.000000	 0.000000
 0.446863	 1.115165	 0.622498	-6.255833	-30.730160	-178.392000	 172.837700	 69.655580	-16.752980	 19.656900	-51.700380	 25.211670	 67.522660	 67.456030	-53.060880	 1.292262	 28.425850	-2.713146	 144.050600	 71.577610	 42.163760	-16.620190	-56.099220	-26.218460	-62.078310	 57.174230	 49.063310	-1.288183	 28.361890	 2.710176	-4.442619	 6.612226	 32.875350	-0.135311	 9.738020	-1.641878	-0.747910	 0.612449	-1.640898	-117.572800	 25.099860	 101.926900	 70.686590	 9.614659	 1.675483	 4.973196	-1.141169	-31.837270	 24.281060	-14.833440	 13.470110	-6.580301	 5.266122	 0.000000	 0.000000	 0.000000	 0.000000	 0.000000	 0.000000	 0.000000	 0.872781	 8.376070	-1.084547	-0.655444	-21.074580	-0.628291	 122.211000	 24.776140	-103.544400	-59.522200	 18.613040	 1.311844	-37.129890	 0.892013	-11.079340	-17.343790	-37.303920	-26.399670	 15.208500	 5.323790	 0.000000	 0.000000	 0.000000	 0.000000	 0.000000	 0.000000	 0.000000
 0.447556	 1.259061	 0.502780	 0.329613	-10.656430	-174.228100	-178.336400	 24.361010	-23.432460	 5.777550	-20.753280	 10.585460	 22.251830	 67.794780	-14.407040	 1.292262	 28.425850	-2.713146	 171.777900	 25.175230	 32.053150	-4.059473	-20.219270	-2.717103	-15.648620	 66.075360	 5.043183	-1.288183	 28.361890	 2.710176	 0.913357	 1.213208	-23.504650	 0.412550	 3.720038	-0.680563	 0.366621	-7.469143	-1.733910	-119.820400	 8.627337	 94.489930	 55.902150	 52.654900	 14.003860	 11.685190	-3.228816	 22.592750	 57.393420	-23.221870	 22.345820	-6.580301	 5.266122	 0.000000	 0.000000	 0.000000	 0.000000	 0.000000	 0.000000	 0.000000	 0.138662	 5.118273	-1.875584	-0.007511	-9.361775	-0.826725	 124.530300	 8.770925	-95.691080	-40.327360	 20.643390	 1.454435	-94.757770	 3.230896	-56.701930	 12.544110	-10.495150	-6.004295	 15.208500	 5.323790	 0.000000	 0.000000	 0.000000	 0.000000	 0.000000	 0.000000	 0.000000
